<svg xmlns="http://www.w3.org/2000/svg" width="1024" height="1024" viewBox="0 0 1024 1024">
  <defs>
    <linearGradient id="bg" x1="160" y1="128" x2="864" y2="896" gradientUnits="userSpaceOnUse">
      <stop offset="0" stop-color="#FFE7D2"/>
      <stop offset="0.45" stop-color="#FFD0B0"/>
      <stop offset="1" stop-color="#F7B290"/>
    </linearGradient>
    <linearGradient id="cover" x1="235" y1="234" x2="762" y2="789" gradientUnits="userSpaceOnUse">
      <stop offset="0" stop-color="#F75252"/>
      <stop offset="0.55" stop-color="#E53345"/>
      <stop offset="1" stop-color="#BB1F37"/>
    </linearGradient>
    <linearGradient id="paper" x1="308" y1="304" x2="710" y2="760" gradientUnits="userSpaceOnUse">
      <stop offset="0" stop-color="#FFFDF7"/>
      <stop offset="1" stop-color="#F6EBD8"/>
    </linearGradient>
    <linearGradient id="sea" x1="318" y1="374" x2="711" y2="713" gradientUnits="userSpaceOnUse">
      <stop offset="0" stop-color="#42B7C8"/>
      <stop offset="1" stop-color="#2C7DA5"/>
    </linearGradient>
    <linearGradient id="gold" x1="360" y1="252" x2="680" y2="792" gradientUnits="userSpaceOnUse">
      <stop offset="0" stop-color="#F8D372"/>
      <stop offset="1" stop-color="#E0A737"/>
    </linearGradient>
    <filter id="softShadow" x="-12%" y="-12%" width="124%" height="130%">
      <feDropShadow dx="0" dy="24" stdDeviation="28" flood-color="#1D2440" flood-opacity="0.24"/>
    </filter>
    <filter id="smallShadow" x="-30%" y="-30%" width="160%" height="170%">
      <feDropShadow dx="0" dy="10" stdDeviation="12" flood-color="#1D2440" flood-opacity="0.18"/>
    </filter>
  </defs>

  <rect width="1024" height="1024" fill="url(#bg)"/>

  <g transform="translate(512 512) scale(1.36) translate(-512 -512)">
    <g filter="url(#softShadow)">
      <path d="M245 254c0-38 31-69 69-69h387c38 0 69 31 69 69v532c0 38-31 69-69 69H314c-38 0-69-31-69-69V254z" fill="url(#cover)"/>
      <path d="M315 226h395c13 0 24 11 24 24v37H291v-37c0-13 11-24 24-24z" fill="#FF7B6E" opacity="0.55"/>
      <path d="M293 274h443v486c0 28-23 51-51 51H344c-28 0-51-23-51-51V274z" fill="url(#paper)"/>
      <path d="M510 274v537" stroke="#E2CFB3" stroke-width="7" stroke-linecap="round"/>
      <path d="M332 334c54-28 109-28 164 0v405c-55-25-110-25-164 0V334z" fill="#FFF9EC"/>
      <path d="M528 334c55-28 109-28 164 0v405c-55-25-109-25-164 0V334z" fill="#FFF6E6"/>
    </g>

    <g filter="url(#smallShadow)">
      <path d="M338 453h150v189H338V453z" rx="26" fill="url(#sea)"/>
      <path d="M338 548c34-21 62-19 94 8 24 20 38 19 56 6v80H338v-94z" fill="#8BD4D4" opacity="0.85"/>
      <path d="M391 497c0-35 28-63 63-63 4 0 9 0 13 1-13 15-21 34-21 55 0 24 10 46 26 61-6 2-12 3-18 3-35 0-63-22-63-57z" fill="#FFF4C6"/>
    </g>

    <g>
      <path d="M589 407h92" stroke="#C73341" stroke-width="24" stroke-linecap="round"/>
      <path d="M600 440h70" stroke="#C73341" stroke-width="16" stroke-linecap="round"/>
      <path d="M612 438v120" stroke="#C73341" stroke-width="18" stroke-linecap="round"/>
      <path d="M658 438v120" stroke="#C73341" stroke-width="18" stroke-linecap="round"/>
      <path d="M596 505h78" stroke="#C73341" stroke-width="16" stroke-linecap="round"/>
    </g>

    <g filter="url(#smallShadow)">
      <path d="M618 589c41 0 75 29 75 65s-34 65-75 65h-32l-45 38 12-46c-21-12-35-32-35-57 0-36 34-65 75-65h25z" fill="#FFFFFF"/>
      <path d="M580 658h77" stroke="#2A5364" stroke-width="15" stroke-linecap="round"/>
      <path d="M603 627v67" stroke="#2A5364" stroke-width="14" stroke-linecap="round"/>
      <path d="M637 628c0 39-23 65-61 72" stroke="#2A5364" stroke-width="14" stroke-linecap="round"/>
    </g>

    <g filter="url(#smallShadow)">
      <path d="M325 685c0-43 35-78 78-78s78 35 78 78c0 61-78 129-78 129s-78-68-78-129z" fill="url(#gold)"/>
      <circle cx="403" cy="685" r="31" fill="#FFF8D8"/>
      <path d="M389 686h29" stroke="#B82437" stroke-width="12" stroke-linecap="round"/>
      <path d="M403 671v29" stroke="#B82437" stroke-width="12" stroke-linecap="round"/>
    </g>

    <path d="M354 365h113" stroke="#DCC49E" stroke-width="14" stroke-linecap="round"/>
    <path d="M354 398h91" stroke="#DCC49E" stroke-width="14" stroke-linecap="round"/>
    <path d="M558 365h106" stroke="#DCC49E" stroke-width="14" stroke-linecap="round"/>
    <path d="M558 398h70" stroke="#DCC49E" stroke-width="14" stroke-linecap="round"/>
  </g>
</svg>
